/* XPM */
static char *_8a2ba20d6174335f5bf1b00bb8f489eLR5cGIhHh4Yb4Loh[] = {
/* columns rows colors chars-per-pixel */
"48 48 194 2 ",
"   c None",
".  c #1D1917",
"X  c #211D1E",
"o  c #2B1F24",
"O  c #1E2A2D",
"+  c #1A2E31",
"@  c #1E2F32",
"#  c #212321",
"$  c #262321",
"%  c #242223",
"&  c #272523",
"*  c #232527",
"=  c #262424",
"-  c #272424",
";  c #272524",
":  c #262525",
">  c #262627",
",  c #272627",
"<  c #282725",
"1  c #272827",
"2  c #22272A",
"3  c #272728",
"4  c #21272D",
"5  c #282529",
"6  c #23282A",
"7  c #252829",
"8  c #262828",
"9  c #272829",
"0  c #25292B",
"q  c #26282A",
"w  c #26292A",
"e  c #27292B",
"r  c #23292D",
"t  c #232A2D",
"y  c #232B2D",
"u  c #23292E",
"i  c #232A2E",
"p  c #25292C",
"a  c #26282C",
"s  c #252B2C",
"d  c #242A2D",
"f  c #272B2C",
"g  c #262A2D",
"h  c #262B2D",
"j  c #242A2E",
"k  c #252A2E",
"l  c #252B2E",
"z  c #252A2F",
"x  c #242B2F",
"c  c #252B2F",
"v  c #262A2E",
"b  c #272A2E",
"n  c #262B2E",
"m  c #272B2E",
"M  c #262B2F",
"N  c #272B2F",
"B  c #212C2F",
"V  c #222D2E",
"C  c #232C2F",
"Z  c #252C2F",
"A  c #262C2F",
"S  c #272C2F",
"D  c #282929",
"F  c #2B2A29",
"G  c #282A2A",
"H  c #2A2C2F",
"J  c #262B30",
"K  c #252C30",
"L  c #242D31",
"P  c #252D31",
"I  c #262C30",
"U  c #272C30",
"Y  c #262D30",
"T  c #272D30",
"R  c #262C31",
"E  c #272C31",
"W  c #262D31",
"Q  c #272D31",
"!  c #272E31",
"~  c #252C32",
"^  c #272D32",
"/  c #242E32",
"(  c #252F32",
")  c #252F33",
"_  c #262E32",
"`  c #272E32",
"'  c #282C30",
"]  c #282D30",
"[  c #292D30",
"{  c #282D31",
"}  c #282D33",
"|  c #282E32",
" . c #263133",
".. c #243034",
"X. c #243136",
"o. c #2A3033",
"O. c #179DF4",
"+. c #179EF5",
"@. c #169EF6",
"#. c #1B9CF3",
"$. c #199EF3",
"%. c #199FF3",
"&. c #1A9EF3",
"*. c #1A9FF3",
"=. c #1A9DF4",
"-. c #199EF5",
";. c #1A9EF4",
":. c #1A9FF4",
">. c #1A9CF6",
",. c #16A1F6",
"<. c #17A1F6",
"1. c #17A0F7",
"2. c #16A2F6",
"3. c #17A6F4",
"4. c #17A7F5",
"5. c #17A4F6",
"6. c #17A6F6",
"7. c #19A0F3",
"8. c #19A1F3",
"9. c #1AA0F3",
"0. c #1AA1F3",
"q. c #1BA1F3",
"w. c #19A2F3",
"e. c #18A0F4",
"r. c #19A0F4",
"t. c #18A1F4",
"y. c #19A1F4",
"u. c #19A1F5",
"i. c #1AA0F4",
"p. c #1AA1F4",
"a. c #1BA1F4",
"s. c #1AA0F5",
"d. c #1AA1F5",
"f. c #18A2F4",
"g. c #19A2F4",
"h. c #18A3F4",
"j. c #19A3F4",
"k. c #19A2F5",
"l. c #18A3F5",
"z. c #1AA2F4",
"x. c #1AA3F5",
"c. c #1BA3F5",
"v. c #19A0F6",
"b. c #18A1F7",
"n. c #1BA1F6",
"m. c #18A2F6",
"M. c #19A2F6",
"N. c #18A3F6",
"B. c #19A3F6",
"V. c #19A3F7",
"C. c #1AA2F6",
"Z. c #1BA2F6",
"A. c #18A4F4",
"S. c #18A5F4",
"D. c #18A4F5",
"F. c #19A4F5",
"G. c #18A6F5",
"H. c #19A4F6",
"J. c #19A6F6",
"K. c #17AAF6",
"L. c #13ADF7",
"P. c #15ACF6",
"I. c #16ADF6",
"U. c #17A3F9",
"Y. c #13A5F8",
"T. c #17A4F9",
"R. c #17A6FA",
"E. c #19A2F8",
"W. c #18A3F8",
"Q. c #19A3F8",
"!. c #19A3F9",
"~. c #19A3FA",
"^. c #19A4F8",
"/. c #1AA7F9",
"(. c #18A4FA",
"). c #19A4FA",
"_. c #19A5FA",
"`. c #18A4FC",
"'. c #18A6FD",
"]. c #18A5FF",
"[. c #18A6FE",
"{. c #19A7FE",
"}. c #18A6FF",
"|. c #17ADFA",
" X c #17AFFB",
".X c #17A9FF",
"XX c #16ADFF",
"oX c #18A8FA",
"OX c #18A8FF",
"+X c #18A9FF",
"@X c #18AAFF",
"#X c #16B0F7",
"$X c #15B7FB",
"%X c #12C4FF",
/* pixels */
"                                                    ; 8 m                                       ",
"                                                          & 8 R m                               ",
"                                u.u.u.u.u.u.u.u.u.OXOX        # m R m                           ",
"                            u.u.u.u.u.u.u.u.u.u.u.u.u.u._..X      ; R R m                       ",
"                        u.u.u.u.u.u.u.u.u.u.u.u.u.u.u.u.u.u.!.XX      m R R                     ",
"                    G.u.u.u.u.u.u.u.u.u.u.u.8.u.u.u.u.u.u.u.u.u.}.      m R R                   ",
"                  u.u.u.u.u.u.u.u.u.u.u.u.u.u.u.u.u.u.u.u.u.u.u.u.!.      ] R R R               ",
"                u.u.u.u.u.u.u.u.u.u.u.u.u.u.u.u.u.u.u.u.u.u.u.u.u.u.u.      m R R R             ",
"              u.u.u.u.u.u.u.u.u.u.u.            u.u.u.u.u.u.u.u.u.u.u.u.      m R R m           ",
"            8.u.u.u.u.u.u.u.                          u.u.u.u.u.u.u.u.u.!.    . R R ] +         ",
"          $.u.u.u.u.u.u.                                  u.u.u.u.u.u.u.-.|.    H R R m         ",
"        K.u.u.u.u.u.G.                                      u.u.u.u.u.u.u.8.      m R R ..      ",
"        u.u.u.u.u.6.                                          u.u.u.u.u.u.u._.    8 R R m       ",
"      G.u.u.u.u.,.                R m R R R R R R               8.u.u.u.u.u.8.      R R R R     ",
"    O.u.u.u.u.u.              Z R R R R R R R R R R R             8.u.u.u.u.u.|.    m R R R     ",
"    u.u.u.u.u.              R R R R R R R R R R R R R R m         P.u.u.u.u.u.u.      R R R ]   ",
"    u.u.u.$.#X           .R R R R R R 8         8 Z R R R R         u.u.u.u.u.u.      R R R R   ",
"  u.u.u.u.u.            ] R R R R 8                   m R R R       u.u.u.u.u.u.}.    Z R R R   ",
"  u.u.u.u.6.          ] R R R R           OX}.          R R R 4       u.u.u.u.u.R.    m R R R   ",
"  u.u.u.u.          ] R R R R         !.u.u.u.u.          ] R R       u.u.u.u.u.u.      R R R J ",
"  u.u.u.u.        R R R R R         u.u.u.                  R R       u.u.u.u.u.u.      R R R m ",
"u.u.u.u.u.        R R R R R       u.$.L.                    R R u     u.u.u.u.u.,.      R R R R ",
"u.u.u.u.6.        R R R R *     _.u.u.                      R R 8     u.u.u.u.u.        R R R R ",
"u.u.u.u.O.      R R R R R       u.u.                        m R G     ,.u.u.u.u.        R R R R ",
",.8.u.u.        R R R R m       u.u.                        R R       u.u.u.u.u.        R R R R ",
"u.u.u.u.        R R R R R       u.u.                      m R 6       u.u.u.u.u.        R R R R ",
"u.u.u.u.        R R R R R       u.u.                      ] R       U.u.u.u.u.        ] R R R R ",
"u.u.u.u.        R R R R R       u.u.                  R R R X       u.u.u.u.u.        u R R R R ",
"  u.u.u.u.      R R R R R       u.u.u.          Z R R R m         u.u.u.u.u.          R R R R   ",
"  u.u.u.G.      R R R R R V       u.u.O.            $           u.u.u.u.-.-.          R R R R   ",
"  u.u.u.u.      R R R R R R       u.8.u.u.                  oX8.u.u.u.-.P.          R R R R V   ",
"  u.u.u.u.      R R R R R R         6.u.u.u.u.u.        _.u.u.u.u.u.u.-.            R R R R u   ",
"    u.u.u.R.    m R R R R R u         u.u.u.u.u.u.u.u.u.u.u.u.u.u.u.u.            m R R R m     ",
"    u.u.u.G.    5 R R R R R R             u.u.u.u.u.u.u.u.u.u.u.u.              2 R R R R @     ",
"    u.u.u.u.      R R R R R R R               u.u.u.u.u.u.u.u.                R R R R R ]       ",
"      u.u.u.u.    ; R R R R R R J                                           V R R R R R O       ",
"      Y.8.u.8.      Z R R R R R R ]                                       m R R R R R R         ",
"        8.u.u.-.    o R R R R R R R R u                                 m R R R R R R           ",
"          u.u.$.$X    $ R R R R R R R R m                           R R R R R R R m o.          ",
"            u.u.$.%X    G R R R R R R R R R R m R             R m R R R R R R R R V             ",
"            u.u.u.-.      m R R R R R R R R R R R R R R R R R R R R R R R R R R ..              ",
"              G.u.u.u.      ; R R R R R R R R R R R R R R R R R R R R R R R R                   ",
"                  u.u.u.      < m R R R R R R R R R R R R R R R R R R R R m                     ",
"                    u.u.u.XX      3 m R R R R R R Z R R R R R R R R R R u                       ",
"                        u.u._.      G 1 m R R R R R R R R R R R R m m                           ",
"                          8.u.u.}.        ; ; 8 Z R R R R R R R                                 ",
"                                u.u.}.}.                                                        ",
"                                      G.!.OX                                                    "
};
